<?xml version="1.0" encoding="utf-8"?>
<!-- Generator: Adobe Illustrator 16.0.0, SVG Export Plug-In . SVG Version: 6.00 Build 0)  -->
<!DOCTYPE svg PUBLIC "-//W3C//DTD SVG 1.1//EN" "http://www.w3.org/Graphics/SVG/1.1/DTD/svg11.dtd">
<svg version="1.1" id="Camada_1" xmlns="http://www.w3.org/2000/svg" xmlns:xlink="http://www.w3.org/1999/xlink" x="0px" y="0px"
	 width="120px" height="120px" viewBox="0 0 120 120" enable-background="new 0 0 120 120" xml:space="preserve">
<g>
	<path fill="#CB613F" d="M38.922,21.338h56.571v-5.896C94.698,15.161,93.848,15,92.958,15H32.113c-4.2,0-7.605,3.407-7.605,7.605
		v74.788c0,4.2,3.406,7.606,7.605,7.606h60.845c0.89,0,1.74-0.162,2.535-0.443v-71.81H38.922c-2.36,0-4.274-2.678-4.274-5.639V26.7
		C34.648,23.739,36.562,21.338,38.922,21.338z M79.091,62.281l-11.254,6.192L80.75,81.737l-4.886,5.059L62.601,73.535l-6.104,11.166
		L45.59,51.376L79.091,62.281z"/>
</g>
</svg>
